<svg width="84" height="95" viewBox="0 0 84 95" fill="none" xmlns="http://www.w3.org/2000/svg">
<path d="M64.4517 22.2071C62.4836 23.5109 60.8534 25.3337 59.7137 27.5048C58.5739 29.676 57.9619 32.1246 57.9348 34.6214C57.9426 37.4315 58.7121 40.1775 60.1479 42.5191C61.5837 44.8607 63.6227 46.6952 66.0125 47.7953C65.0703 51.0847 63.6759 54.202 61.876 57.0423C59.3007 61.0538 56.6079 65.0649 52.5107 65.0649C48.4134 65.0649 47.3597 62.4892 42.6379 62.4892C38.0332 62.4892 36.3942 65.1495 32.648 65.1495C28.9018 65.1495 26.2875 61.4336 23.2826 56.8734C19.3134 50.4852 17.1319 42.9933 17 35.2968C17 22.6294 24.6096 15.9159 32.1016 15.9159C36.0821 15.9159 39.3991 18.7447 41.8966 18.7447C44.2769 18.7447 47.9842 15.7467 52.5107 15.7467C54.838 15.6817 57.1444 16.237 59.2267 17.3636C61.309 18.4901 63.1034 20.1535 64.4517 22.2071ZM50.3646 10.3844C52.3599 7.84457 53.4894 4.6408 53.5644 1.30827C53.5678 0.868946 53.5286 0.430453 53.4473 0C50.0198 0.362283 46.8504 2.12993 44.589 4.94036C42.5744 7.379 41.4024 10.4972 41.272 13.7651C41.2735 14.1625 41.3128 14.5587 41.3891 14.9474C41.6593 15.0027 41.9337 15.031 42.2087 15.032C43.7883 14.896 45.3259 14.4139 46.7279 13.6149C48.13 12.816 49.3673 11.7169 50.3646 10.3844Z" fill="black"/>
<path d="M3.32812 78.3574C2.36133 78.3574 1.55566 77.584 1.55566 76.6172C1.55566 75.6396 2.36133 74.8662 3.32812 74.8662C4.29492 74.8662 5.08984 75.6396 5.08984 76.6172C5.08984 77.584 4.29492 78.3574 3.32812 78.3574ZM1.74902 92V80.1729H4.88574V92H1.74902ZM8.35547 92V76.499H12.0723L16.3584 87.8428H16.5518L20.8271 76.499H24.5439V92H21.6543V81.4512H21.4395L17.4648 92H15.4346L11.46 81.4512H11.2451V92H8.35547ZM31.2256 92.1826C28.9697 92.1826 27.3691 90.7861 27.3691 88.6377V88.6162C27.3691 86.4893 29.0127 85.2432 31.9561 85.0713L34.8135 84.8994V83.9219C34.8135 82.9014 34.1152 82.3213 32.8262 82.3213C31.6982 82.3213 30.9785 82.7188 30.7314 83.417L30.71 83.46H27.8096L27.8203 83.3633C28.0674 81.29 30.0225 79.915 32.998 79.915C36.1348 79.915 37.9072 81.3975 37.9072 83.9219V92H34.8135V90.4316H34.6201C34.0186 91.5273 32.7725 92.1826 31.2256 92.1826ZM30.4307 88.4443C30.4307 89.3467 31.1934 89.8945 32.2783 89.8945C33.7285 89.8945 34.8135 88.9385 34.8135 87.6924V86.8223L32.4287 86.9727C31.0859 87.0586 30.4307 87.5635 30.4307 88.4229V88.4443ZM40.9795 92V80.1729H44.1162V82.0098H44.3096C44.6855 80.7314 45.7598 79.9795 47.2959 79.9795C47.7148 79.9795 48.1553 80.0439 48.4668 80.1299V82.8691C47.9941 82.7617 47.5107 82.6865 47.0273 82.6865C45.2441 82.6865 44.1162 83.707 44.1162 85.3828V92H40.9795ZM50.6689 92V75.6504H53.8057V84.8457H53.999L57.9521 80.1729H61.5078L56.9639 85.1895L61.8193 92H58.1133L54.665 87.123L53.8057 88.0361V92H50.6689ZM68.2861 92.2471C64.6875 92.2471 62.5068 89.8945 62.5068 86.1025V86.0918C62.5068 82.332 64.709 79.915 68.1572 79.915C71.6055 79.915 73.7539 82.2783 73.7539 85.8555V86.833H65.6113C65.6436 88.7773 66.6855 89.9053 68.3506 89.9053C69.7256 89.9053 70.4883 89.1748 70.7031 88.7236L70.7354 88.6592H73.6572L73.6357 88.7666C73.2705 90.249 71.7451 92.2471 68.2861 92.2471ZM68.2109 82.2676C66.8467 82.2676 65.8369 83.1914 65.6436 84.8672H70.7461C70.5527 83.1484 69.5752 82.2676 68.2109 82.2676ZM81.2305 92.043C78.3516 92.043 77.1914 91.1084 77.1914 88.8096V82.5361H75.3652V80.1729H77.1914V77.3477H80.3604V80.1729H82.7988V82.5361H80.3604V88.0898C80.3604 89.1533 80.8115 89.626 81.875 89.626C82.2832 89.626 82.498 89.6045 82.7988 89.5723V91.9033C82.4121 91.9785 81.832 92.043 81.2305 92.043Z" fill="black"/>
</svg>
